<?xml version="1.0" encoding="UTF-8"?>
<svg xmlns="http://www.w3.org/2000/svg" xmlns:xlink="http://www.w3.org/1999/xlink" viewBox="0 0 16 16" width="16px" height="16px">
<g id="surface3663373">
<path style=" stroke:none;fill-rule:nonzero;fill:rgb(20.392157%,59.607846%,85.882354%);fill-opacity:1;" d="M 5.332031 2 C 3.496094 2 2 3.496094 2 5.332031 L 2 10.667969 C 2 12.503906 3.496094 14 5.332031 14 L 10.667969 14 C 12.503906 14 14 12.503906 14 10.667969 L 14 5.332031 C 14 3.496094 12.503906 2 10.667969 2 Z M 5.332031 3.332031 L 10.667969 3.332031 C 11.769531 3.332031 12.667969 4.230469 12.667969 5.332031 L 12.667969 10.667969 C 12.667969 11.769531 11.769531 12.667969 10.667969 12.667969 L 5.332031 12.667969 C 4.230469 12.667969 3.332031 11.769531 3.332031 10.667969 L 3.332031 5.332031 C 3.332031 4.230469 4.230469 3.332031 5.332031 3.332031 Z M 11.332031 4 C 10.964844 4 10.667969 4.296875 10.667969 4.667969 C 10.667969 5.035156 10.964844 5.332031 11.332031 5.332031 C 11.703125 5.332031 12 5.035156 12 4.667969 C 12 4.296875 11.703125 4 11.332031 4 Z M 8 4.667969 C 6.160156 4.667969 4.667969 6.160156 4.667969 8 C 4.667969 9.839844 6.160156 11.332031 8 11.332031 C 9.839844 11.332031 11.332031 9.839844 11.332031 8 C 11.332031 6.160156 9.839844 4.667969 8 4.667969 Z M 8 6 C 9.101562 6 10 6.898438 10 8 C 10 9.101562 9.101562 10 8 10 C 6.898438 10 6 9.101562 6 8 C 6 6.898438 6.898438 6 8 6 Z M 8 6 "/>
</g>
</svg>
