<?xml version="1.0" encoding="UTF-8"?>
<svg xmlns="http://www.w3.org/2000/svg" xmlns:xlink="http://www.w3.org/1999/xlink" viewBox="0 0 16 16" width="16px" height="16px">
<g id="surface3649398">
<path style="fill-rule:nonzero;fill:rgb(0%,0%,0%);fill-opacity:1;stroke-width:10;stroke-linecap:butt;stroke-linejoin:round;stroke:rgb(100%,100%,100%);stroke-opacity:1;stroke-miterlimit:10;" d="M 172.956146 14.109795 C 186.548509 14.109795 197.721893 25.340774 197.721893 38.933137 L 197.721893 172.956146 C 197.721893 186.548509 186.548509 197.721893 172.956146 197.721893 L 38.933137 197.721893 C 25.340774 197.721893 14.109795 186.548509 14.109795 172.956146 L 14.109795 38.933137 C 14.109795 25.340774 25.340774 14.109795 38.933137 14.109795 Z M 28.278106 38.933137 L 28.278106 172.956146 C 28.278106 178.946001 32.943282 183.611177 38.933137 183.611177 L 172.956146 183.611177 C 178.946001 183.611177 183.611177 178.946001 183.611177 172.956146 L 183.611177 38.933137 C 183.611177 32.943282 178.946001 28.278106 172.956146 28.278106 L 38.933137 28.278106 C 32.943282 28.278106 28.278106 32.943282 28.278106 38.933137 Z M 70.610256 56.499539 C 70.610256 64.274832 64.274832 70.610256 56.499539 70.610256 C 48.724246 70.610256 42.388823 64.274832 42.388823 56.499539 C 42.388823 48.724246 48.724246 42.388823 56.499539 42.388823 C 64.274832 42.388823 70.610256 48.724246 70.610256 56.499539 Z M 70.610256 84.778567 L 70.610256 169.50046 L 42.388823 169.50046 L 42.388823 84.778567 Z M 113 84.778567 L 113 97.103846 L 113.345568 97.103846 C 116.974038 90.01969 123.65503 84.778567 136.901825 84.778567 C 164.432121 84.778567 169.50046 103.381675 169.50046 127.686664 L 169.50046 169.50046 L 141.221433 169.50046 L 141.221433 132.409434 C 141.221433 121.984782 142.142949 109.37153 128.205017 109.37153 C 114.0943 109.37153 113 119.911371 113 131.660702 L 113 169.50046 L 84.778567 169.50046 L 84.778567 84.778567 Z M 113 84.778567 " transform="matrix(0.067823,0,0,0.067823,0.336,0.336)"/>
<path style=" stroke:none;fill-rule:nonzero;fill:rgb(20.392157%,59.607846%,85.882354%);fill-opacity:1;" d="M 2.976562 1.292969 C 2.054688 1.292969 1.292969 2.054688 1.292969 2.976562 L 1.292969 12.066406 C 1.292969 12.988281 2.054688 13.746094 2.976562 13.746094 L 12.066406 13.746094 C 12.988281 13.746094 13.746094 12.988281 13.746094 12.066406 L 13.746094 2.976562 C 13.746094 2.054688 12.988281 1.292969 12.066406 1.292969 Z M 2.976562 2.253906 L 12.066406 2.253906 C 12.472656 2.253906 12.789062 2.570312 12.789062 2.976562 L 12.789062 12.066406 C 12.789062 12.472656 12.472656 12.789062 12.066406 12.789062 L 2.976562 12.789062 C 2.570312 12.789062 2.253906 12.472656 2.253906 12.066406 L 2.253906 2.976562 C 2.253906 2.570312 2.570312 2.253906 2.976562 2.253906 Z M 4.167969 3.210938 C 3.640625 3.210938 3.210938 3.640625 3.210938 4.167969 C 3.210938 4.695312 3.640625 5.125 4.167969 5.125 C 4.695312 5.125 5.125 4.695312 5.125 4.167969 C 5.125 3.640625 4.695312 3.210938 4.167969 3.210938 Z M 3.210938 6.085938 L 3.210938 11.832031 L 5.125 11.832031 L 5.125 6.085938 Z M 6.085938 6.085938 L 6.085938 11.832031 L 8 11.832031 L 8 9.265625 C 8 8.46875 8.074219 7.753906 9.03125 7.753906 C 9.976562 7.753906 9.914062 8.609375 9.914062 9.316406 L 9.914062 11.832031 L 11.832031 11.832031 L 11.832031 8.996094 C 11.832031 7.347656 11.488281 6.085938 9.621094 6.085938 C 8.722656 6.085938 8.269531 6.441406 8.023438 6.921875 L 8 6.921875 L 8 6.085938 Z M 6.085938 6.085938 "/>
</g>
</svg>
